<mxfile host="65bd71144e">
    <diagram id="g9IzFdIgf6HGvcq9mrvx" name="Page-1">
        <mxGraphModel dx="1015" dy="1198" grid="1" gridSize="10" guides="1" tooltips="1" connect="1" arrows="1" fold="1" page="1" pageScale="1" pageWidth="850" pageHeight="1100" math="0" shadow="0">
            <root>
                <mxCell id="0"/>
                <mxCell id="1" parent="0"/>
                <mxCell id="2" value="RAG Workflow" style="swimlane;whiteSpace=wrap;html=1;" vertex="1" parent="1">
                    <mxGeometry x="150" y="70" width="610" height="310" as="geometry"/>
                </mxCell>
                <mxCell id="4" value="LLM" style="ellipse;whiteSpace=wrap;html=1;" vertex="1" parent="2">
                    <mxGeometry x="470" y="60" width="120" height="80" as="geometry"/>
                </mxCell>
                <mxCell id="18" value="Question" style="edgeStyle=none;html=1;entryX=0;entryY=0.5;entryDx=0;entryDy=0;" edge="1" parent="2" source="6" target="8">
                    <mxGeometry relative="1" as="geometry"/>
                </mxCell>
                <mxCell id="6" value="Actor" style="shape=umlActor;verticalLabelPosition=bottom;verticalAlign=top;html=1;outlineConnect=0;" vertex="1" parent="2">
                    <mxGeometry x="30" y="70" width="30" height="60" as="geometry"/>
                </mxCell>
                <mxCell id="8" value="Your App" style="rounded=1;whiteSpace=wrap;html=1;" vertex="1" parent="2">
                    <mxGeometry x="195" y="70" width="120" height="60" as="geometry"/>
                </mxCell>
                <mxCell id="14" value="Vector Store" style="ellipse;whiteSpace=wrap;html=1;" vertex="1" parent="2">
                    <mxGeometry x="120" y="190" width="120" height="80" as="geometry"/>
                </mxCell>
                <mxCell id="15" value="Relevant API" style="ellipse;whiteSpace=wrap;html=1;" vertex="1" parent="2">
                    <mxGeometry x="270" y="190" width="120" height="80" as="geometry"/>
                </mxCell>
                <mxCell id="21" value="Fetch Data" style="endArrow=classic;startArrow=classic;html=1;entryX=0.25;entryY=1;entryDx=0;entryDy=0;exitX=0.5;exitY=0;exitDx=0;exitDy=0;" edge="1" parent="2" source="14" target="8">
                    <mxGeometry width="50" height="50" relative="1" as="geometry">
                        <mxPoint x="200" y="190" as="sourcePoint"/>
                        <mxPoint x="250" y="140" as="targetPoint"/>
                    </mxGeometry>
                </mxCell>
                <mxCell id="22" value="Fetch Data" style="endArrow=classic;startArrow=classic;html=1;entryX=0.75;entryY=1;entryDx=0;entryDy=0;exitX=0.5;exitY=0;exitDx=0;exitDy=0;" edge="1" parent="2" source="15" target="8">
                    <mxGeometry width="50" height="50" relative="1" as="geometry">
                        <mxPoint x="190" y="200" as="sourcePoint"/>
                        <mxPoint x="235" y="140" as="targetPoint"/>
                    </mxGeometry>
                </mxCell>
                <mxCell id="23" value="Send Fetched&lt;br&gt;Data and Question" style="endArrow=classic;startArrow=classic;html=1;entryX=1;entryY=0.5;entryDx=0;entryDy=0;exitX=0;exitY=0.5;exitDx=0;exitDy=0;" edge="1" parent="2" source="4" target="8">
                    <mxGeometry width="50" height="50" relative="1" as="geometry">
                        <mxPoint x="340" y="200" as="sourcePoint"/>
                        <mxPoint x="295" y="140" as="targetPoint"/>
                    </mxGeometry>
                </mxCell>
                <mxCell id="24" value="Agentic Workflow" style="swimlane;whiteSpace=wrap;html=1;" vertex="1" parent="1">
                    <mxGeometry x="150" y="395" width="610" height="310" as="geometry"/>
                </mxCell>
                <mxCell id="25" value="LLM" style="ellipse;whiteSpace=wrap;html=1;" vertex="1" parent="24">
                    <mxGeometry x="410" y="60" width="120" height="80" as="geometry"/>
                </mxCell>
                <mxCell id="26" value="Question" style="edgeStyle=none;html=1;entryX=0;entryY=0.5;entryDx=0;entryDy=0;" edge="1" parent="24" source="27" target="28">
                    <mxGeometry relative="1" as="geometry"/>
                </mxCell>
                <mxCell id="27" value="Actor" style="shape=umlActor;verticalLabelPosition=bottom;verticalAlign=top;html=1;outlineConnect=0;" vertex="1" parent="24">
                    <mxGeometry x="30" y="70" width="30" height="60" as="geometry"/>
                </mxCell>
                <mxCell id="28" value="Your App" style="rounded=1;whiteSpace=wrap;html=1;" vertex="1" parent="24">
                    <mxGeometry x="155" y="70" width="120" height="60" as="geometry"/>
                </mxCell>
                <mxCell id="29" value="Vector Store" style="ellipse;whiteSpace=wrap;html=1;" vertex="1" parent="24">
                    <mxGeometry x="320" y="205" width="120" height="80" as="geometry"/>
                </mxCell>
                <mxCell id="30" value="Relevant API" style="ellipse;whiteSpace=wrap;html=1;" vertex="1" parent="24">
                    <mxGeometry x="480" y="205" width="120" height="80" as="geometry"/>
                </mxCell>
                <mxCell id="31" value="Fetch Data&lt;br&gt;Using Your App's Tool" style="endArrow=classic;startArrow=classic;html=1;entryX=0;entryY=1;entryDx=0;entryDy=0;exitX=0.5;exitY=0;exitDx=0;exitDy=0;" edge="1" parent="24" source="29" target="25">
                    <mxGeometry width="50" height="50" relative="1" as="geometry">
                        <mxPoint x="200" y="190" as="sourcePoint"/>
                        <mxPoint x="250" y="140" as="targetPoint"/>
                    </mxGeometry>
                </mxCell>
                <mxCell id="32" value="Fetch Data&lt;br&gt;Using Your App's Tool" style="endArrow=classic;startArrow=classic;html=1;entryX=1;entryY=1;entryDx=0;entryDy=0;exitX=0.5;exitY=0;exitDx=0;exitDy=0;" edge="1" parent="24" source="30" target="25">
                    <mxGeometry width="50" height="50" relative="1" as="geometry">
                        <mxPoint x="190" y="200" as="sourcePoint"/>
                        <mxPoint x="235" y="140" as="targetPoint"/>
                    </mxGeometry>
                </mxCell>
                <mxCell id="33" value="Send Question&lt;br&gt;And Tool Definitions" style="endArrow=classic;startArrow=classic;html=1;entryX=1;entryY=0.5;entryDx=0;entryDy=0;exitX=0;exitY=0.5;exitDx=0;exitDy=0;" edge="1" parent="24" source="25" target="28">
                    <mxGeometry width="50" height="50" relative="1" as="geometry">
                        <mxPoint x="340" y="200" as="sourcePoint"/>
                        <mxPoint x="295" y="140" as="targetPoint"/>
                    </mxGeometry>
                </mxCell>
            </root>
        </mxGraphModel>
    </diagram>
</mxfile>